Patient4_TMGait_0pt3_02_right_24_EMG.mot
version=1
nRows=33
nColumns=33
inDegrees=no
endheader
time	1LAddLong	2LGlutMax	3LGlutMed	4LIliopsoas	5LSemiMemb	6LBicFemLong	7LRecFem	8LVastMed	9LVastLat	10LGasMed	11LTibAnt	12lTibPost	13LPeroneusLong	14LSol	15LExtDigLong	16LFlexDigLong	17RAddLong	18RGlutMax	19RGlutMed	20RIliopsoas	21RSemiMemb	22RBicFemLong	23RRecFem	24RVastMed	25RVastLat	26RGasMed	27RTibAnt	28RTibPost	29RPeroneusLong	30RSol	31RExtDigLong	32RFlexDigLong
46.782	-0.000916	-0.090027	0.006409	0.005035	0.011292	-0.037231	0.042419	-0.001678	0.02594	-0.007324	0.0177	-0.000305	0.023804	0.028076	0.010223	0.010834	-0.004272	0.6073	-0.7283	0.20676	0.09079	0.018921	-0.031738	-0.1091	0.19241	-0.005798	-0.000305	-0.000458	-0.07431	-0.049744	-0.016327	-0.014648
46.783	0.001526	-0.14069	0.012054	0.001984	0.012512	-0.023956	0.023193	-0.000458	0.031738	-0.010223	0.024719	0.009155	0.03067	0.039063	0.007019	-0.011749	-0.032349	0.65216	-0.8017	0.13534	0.2475	-0.38391	-0.004272	-0.36316	0.072784	-0.006561	0.011444	-0.003815	-0.043488	0.00412	-0.004272	-0.013428
46.784	0.002136	-0.12848	0.009918	0.005188	0.008698	-0.006409	0.003357	-0.001831	0.035095	-0.019684	0.03891	0.002594	0.046997	0.017395	0.019684	0.002136	0.009155	0.72876	-0.4866	0.099792	-0.10315	-0.39688	0.076447	-0.28854	-0.002441	-0.000458	0.019989	-0.005646	-0.046387	-0.034637	-0.00824	-0.014038
46.785	0.006256	-0.14252	-0.001984	0.014191	0.003052	-0.013123	-0.020294	-0.000305	0.032501	-0.020447	0.020294	0.005188	0.058136	0.03479	0.016785	0.002747	0.009155	0.70221	-0.29846	0.097351	-0.080261	-0.29831	-0.1152	0.03067	-0.023651	-0.000305	0.032654	0.005951	-0.058746	-0.04303	0.002441	-0.015717
46.786	0.010986	-0.14755	0.007629	0.026398	0.007324	-0.012665	-0.027466	-0.000458	0.039215	0.006256	-0.005951	0.00473	0.035095	0.043182	0.14633	0.008087	-0.042114	0.70541	-0.27679	0.10651	0.082703	-0.3093	-0.16403	0.15305	-0.014801	-0.001373	0.047913	-0.001984	-0.10849	-0.0737	-0.00885	-0.02594
46.787	-0.001221	-0.16098	0.004425	0.024261	-0.004425	0.02594	-0.028839	-0.000916	0.046387	-0.014648	-0.029755	0.006104	0.044708	0.006409	0.17212	0.010223	-0.086975	0.71625	-0.20615	0.042725	0.2977	-0.41061	-0.21484	0.27695	0.13031	0.003662	0.040436	0.001526	-0.11902	-0.095215	-0.006561	-0.015106
46.788	0.001373	-0.15411	0.024414	0.018463	-0.005035	0.020294	-0.051727	0.00351	0.049286	-0.041046	-0.043488	-0.000458	0.041809	-0.005951	-0.09552	0.012207	-0.04837	0.84396	-0.40848	-0.036621	0.20599	-0.42587	-0.13016	0.35996	0.2594	0.019836	-0.015564	0.002136	-0.057373	-0.059662	-0.001068	-0.016327
46.789	-0.00885	-0.17899	0.015869	0.016022	-0.005188	-0.000305	-0.032349	-0.011139	0.039978	-0.056763	-0.029755	0.000916	0.020142	0.001678	-0.19745	0.01358	0.009613	0.80612	-0.082245	-0.034943	0.082855	-0.43427	-0.010834	0.19058	0.17609	0.042419	-0.077057	-0.002441	0.021667	-0.058289	-0.007935	-0.00946
46.79	0.009918	-0.17425	0.028687	0.011139	0.009613	-0.028839	-0.02121	-0.006714	0.03418	-0.047607	-0.00351	-0.003967	0.033875	0.019989	-0.16251	0.011139	0.052032	0.84122	0.020294	-0.013733	0.11993	-0.32822	-0.049896	-0.018005	0.067291	-0.001068	-0.058594	-0.010529	0.11307	-0.08728	-0.004883	-0.015106
46.791	0.003357	-0.18631	0.023193	0.006409	0.017853	-0.033417	-0.015106	-0.008698	0.022888	-0.061035	0.003204	0.000153	-0.00473	0.062866	-0.075378	-0.43472	0.026703	0.73898	-0.30762	-0.036316	0.12756	-0.1384	-0.068512	-0.16495	0.077362	-0.047913	-0.037994	-0.00824	0.051422	-0.082092	-0.002594	-0.009918
46.792	0.001984	-0.17105	0.00351	0.014496	0.010376	-0.027161	0.007629	-0.00061	0.018463	-0.025177	0.00885	-0.005341	-0.004272	0.074463	-0.019379	0.035858	0.023193	0.67795	-0.44876	-0.11032	0.070648	0.00351	0.011902	-0.18326	0.036469	-0.049286	-0.031433	-0.001678	-0.041504	-0.059204	0.00351	-0.008698
46.793	0.006714	-0.15884	0.00824	0.000458	0.016785	-0.046539	0.003052	-0.003662	0.015869	0.098572	0.004883	0.002441	-0.005798	0.058289	-0.017548	0.17761	0.034485	0.61951	-0.47226	-0.12695	-0.10468	0.13718	0.081329	-0.14908	-0.001984	-0.018921	-0.003967	-0.002136	-0.10025	-0.036163	-0.007172	0
46.794	0.002289	-0.17807	0.006561	0.002899	-0.00061	-0.040588	0.005341	-0.000916	0.00824	0.22537	0.00412	-0.000458	0.020142	-0.009003	0.003052	0.1619	-0.020752	0.48447	-0.95581	-0.10803	-0.045776	0.24109	0.079041	-0.013885	0.055847	-0.011292	0.029907	-0.002441	-0.09491	-0.11551	-0.007935	-0.002594
46.795	0.002441	-0.15595	-0.00473	0.002136	0.003357	-0.038147	0.01358	-0.007172	0.005646	0.1236	0.001221	-0.008545	0.036469	-0.077667	0.036316	-0.16068	-0.052185	0.45837	-0.68817	-0.026703	0.1062	0.35095	0.18448	0.052338	0.067596	-0.030823	0.10574	-0.012054	-0.17014	-0.14328	-0.003204	-0.006561
46.796	-0.007019	-0.13931	-0.000916	0.016632	0.006256	-0.063629	0.019684	-0.002441	0.000305	0.032959	0.003967	-0.002594	0.023041	-0.029144	0.048523	-0.068512	-0.053406	0.42923	-0.18005	0.040436	0.16098	0.43823	0.2063	-0.034027	0.023499	-0.0383	0.12192	-0.010681	-0.16464	-0.086517	-0.003204	-0.002289
46.797	0.000458	-0.12985	0.024719	-0.000763	0.013123	-0.023499	0.005493	0.000763	0.005493	0.013123	-0.001068	-0.008698	0.039368	-0.08606	0.11948	0.090637	-0.031281	0.3598	-0.014191	0.14526	0.00885	0.58395	0.12497	-0.015869	0.037537	-0.031128	0.075531	-0.010834	-0.12985	-0.043945	-0.010223	-0.011139
46.798	-0.002136	-0.12558	0.02121	0.016327	0.017853	-0.017242	0.021057	0.006866	-0.001984	0.02243	-0.000916	0.006409	0.028229	-0.15579	0.2124	0.11917	-0.074005	0.34653	-0.1738	0.24384	-0.10315	0.45578	-0.16495	0.3302	0.083771	-0.014801	0.018463	0.005493	0.14923	0.009155	-0.000458	-0.018921
46.799	-0.00351	-0.12558	0.002289	0.016174	0.002899	0.001221	0.036011	0.000305	0.011444	0.046082	-0.029602	0.024414	-0.029755	-0.17227	0.086365	0.10681	-0.011139	0.30045	-0.75241	0.26459	-0.059509	-0.087128	-0.006714	0.23148	0.011749	0.022278	-0.023956	-0.011902	0.13153	0.034027	-0.003052	-0.01358
46.8	-0.010834	-0.13702	-0.000458	0.018005	0.013275	-0.008698	0.010376	0.000305	-0.000916	0.017853	-0.089569	0.027313	-0.036926	-0.14877	0.48782	0.03006	0.02655	0.30426	-0.16449	0.063324	-0.001221	-0.21469	0.18417	0.042267	-0.079651	0.048065	-0.006409	-0.016937	0.048065	0.055084	0.001678	-0.016479
46.801	-0.008545	-0.13489	-0.005493	0.018311	0.010986	-0.002594	-0.025177	0.002136	0.001068	-0.007935	-0.11078	0.010071	-0.026093	-0.089722	0.056915	-0.003204	0.029602	0.34897	-0.29251	-0.050659	-0.015259	-0.13412	0.001221	0.032654	-0.071411	0.039978	-0.001068	-0.018463	0.19196	0.008545	-0.00412	-0.013428
46.802	-0.005035	-0.11383	0.004883	0.007629	0.014038	0.009613	-0.016174	-0.00412	0.021667	-0.028381	-0.27252	0.010376	0.00885	0.066223	0.25757	-0.007935	0.058746	0.39795	-0.18631	-0.10162	-0.010834	-0.159	-0.10208	0.014801	-0.054321	0.011749	0.020294	0.001526	-0.12543	-0.004883	-0.005341	-0.001526
46.803	-0.004883	-0.12054	0.029755	0.002136	0.007172	-0.010071	-0.039673	-0.005493	0.021515	-0.034485	-0.11993	0.012054	0.052795	0.13825	-0.17456	-0.030212	0.070496	0.41855	0.02533	-0.066071	0.050964	-0.15839	-0.02243	-0.004272	-0.036163	-0.001068	0.05249	-0.019379	-0.20432	0.049133	-0.002594	-0.014648
46.804	-0.00473	-0.092621	0.019531	0.001221	-0.006714	0.007324	-0.0177	-0.001221	0.002441	-0.032196	0.15747	-0.012512	0.057373	0.1474	-0.46646	-0.015259	0.085602	0.54153	-0.20065	-0.045471	0.10315	0.010376	0.078278	0.025177	-0.041199	-0.002594	0.090637	-0.159	-0.12955	-0.028076	-0.000458	-0.013123
46.805	-0.002289	-0.080719	0.003662	0.014648	-0.008545	-0.016632	-0.028076	0.001526	0.016174	-0.003662	0.079651	-0.001526	-0.032349	0.15976	-0.29098	-0.032196	0.073395	0.47577	-0.58823	0.014038	0.06073	0.24155	0.12375	-0.064545	-0.041351	-0.009918	0.086365	0.089569	-0.003204	-0.097656	0.004883	-0.020447
46.806	-0.002747	-0.090942	0.007629	0.021667	-0.001373	-0.03479	-0.02182	-0.002289	0.028992	-0.002594	0.007629	0.000458	-0.058594	0.072327	-0.4451	-0.027161	0.061646	0.35294	-0.52536	-0.000916	-0.3183	0.27542	0.15274	-0.1535	0.015717	-0.033875	0.045776	0.073395	0.00412	-0.016479	-0.003662	-0.00885
46.807	0.001678	-0.079803	0.018005	0.019836	-0.002136	-0.055695	-0.023346	-0.004272	0.020142	-0.001373	0.097351	0.004272	-0.041199	0.034485	-0.23895	-0.016327	0.020905	0.27496	0.16144	-0.032654	-0.45944	0.29007	0.001984	-0.10498	0.049896	-0.031891	-0.005798	0.031738	-0.067291	-0.070801	-0.000916	-0.014648
46.808	0.008087	-0.12711	0.018158	0.015411	0.019989	-0.048523	-0.0354	-0.003204	0.018005	0.005493	0.2565	0.010223	-0.045013	0.026398	0.23895	-0.015564	0.007782	0.26977	-0.33661	-0.043793	-0.34058	0.22934	-0.07019	-0.02594	0.094604	-0.023651	0.055389	0.018463	-0.17914	-0.25284	-0.003662	-0.012817
46.809	-0.002136	-0.12772	0.023346	0.001526	0.025024	-0.02594	-0.029602	-0.008698	0.010529	-0.016632	0.34821	-0.000458	-0.030975	-0.001221	0.30456	0.000458	-0.024719	0.10666	-0.40573	-0.026093	0.025024	0.088654	-0.17929	0.20355	0.068054	0.000916	0.15121	0.00946	-0.10605	-0.066833	-0.007935	-0.00946
46.81	0.001373	-0.177	0.032959	0.014954	0.026398	-0.042419	-0.02655	-0.001831	0.002289	-0.038452	0.15778	-0.001068	0.059357	0.023499	-0.005341	0.002136	-0.071411	0.058746	-0.073853	-0.065002	0.34775	0.044556	-0.20905	0.24765	-0.038757	0.001678	0.19638	-0.001068	0.010529	-0.17105	-0.006104	-0.009003
46.811	-0.001984	-0.11093	0.019073	0.010834	0.030975	-0.034027	-0.022888	-0.009918	0.005646	-0.041962	0.14877	0.005798	0.03952	0.000458	0.000153	-0.001221	-0.030975	0.12253	0.36575	-0.06958	0.16632	-0.077972	-0.21515	0.50995	-0.050201	-0.020752	0.25116	0.004578	0.087891	-0.1294	-0.002747	-0.002289
46.812	-0.003967	-0.12253	0.016174	0.014343	0.022736	-0.024109	-0.016785	-0.004272	0.008087	-0.025024	0.096741	-0.001068	0.073547	0.031433	-0.42252	-0.011292	0.025177	0.16159	0.1564	0.024109	0.052032	-0.16937	0.06134	0.85831	-0.038605	0.022736	0.35019	-0.005493	0.009155	0.081635	-0.005341	-0.002289
46.813	-0.00473	-0.12512	0.029907	0.006561	0.019226	-0.018005	-0.009613	-0.001984	0.014648	-0.027161	-0.078583	-0.001221	0.054169	0.083923	-0.11902	-0.007019	0.048218	0.23575	0.18417	0.024261	0.08255	-0.10468	0.11581	0.64285	0.001831	0.014496	0.14435	-0.003052	-0.05722	0.20584	0.000458	-0.004578
46.814	0.000458	-0.13168	0.017242	0.008698	0.014191	-0.040131	-0.012817	-0.007782	0.001984	-0.010834	-0.10269	0.002899	-0.00412	0.070648	0.000916	0	0.038452	0.32257	0.21469	0.019379	0.044556	-0.064087	0.17609	0.082245	0.00351	0.021973	-0.076294	-0.02121	-0.019531	-0.011444	-0.002136	0.003967
